<?xml version="1.0" encoding="UTF-8" standalone="no"?>
<!DOCTYPE svg PUBLIC "-//W3C//DTD SVG 1.1//EN"
 "http://www.w3.org/Graphics/SVG/1.1/DTD/svg11.dtd">
<!-- Generated by graphviz version 2.43.0 (0)
 -->
<!-- Title: gocallvis Pages: 1 -->
<svg width="1236pt" height="1124pt"
 viewBox="0.00 0.00 1235.86 1124.00" xmlns="http://www.w3.org/2000/svg" xmlns:xlink="http://www.w3.org/1999/xlink">
<g id="graph0" class="graph" transform="scale(1 1) rotate(0) translate(0 1124)">
<title>gocallvis</title>
<polygon fill="lightgray" stroke="transparent" points="0,0 0,-1124 1235.86,-1124 1235.86,0 0,0"/>
<text text-anchor="middle" x="68.5" y="-7.8" font-family="Arial" font-size="14.00">git/omc_log_system</text>
<g id="clust1" class="cluster">
<title>cluster_focus</title>
<polygon fill="#e6ecfa" stroke="black" stroke-width="0.5" points="8,-31 8,-1116 1227.86,-1116 1227.86,-31 8,-31"/>
<text text-anchor="middle" x="617.93" y="-1097.6" font-family="Arial" font-size="18.00">proxy</text>
</g>
<!-- (*sync.Map).Range -->
<g id="node1" class="node">
<title>(*sync.Map).Range</title>
<ellipse fill="#adedad" stroke="black" stroke-width="1.5" cx="543.53" cy="-1059" rx="68.68" ry="21.43"/>
<text text-anchor="middle" x="543.53" y="-1062.8" font-family="Verdana" font-size="14.00">sync</text>
<text text-anchor="middle" x="543.53" y="-1047.8" font-family="Verdana" font-size="14.00">(*Map).Range</text>
</g>
<!-- git/omc_log_system/proxy.creatRouter$6$1 -->
<g id="node2" class="node">
<title>git/omc_log_system/proxy.creatRouter$6$1</title>
<ellipse fill="lightblue" stroke="black" stroke-dasharray="1,5" cx="843.51" cy="-940" rx="63.01" ry="18"/>
<text text-anchor="middle" x="843.51" y="-936.3" font-family="Verdana" font-size="14.00">creatRouter$6$1</text>
</g>
<!-- (*sync.Map).Range&#45;&gt;git/omc_log_system/proxy.creatRouter$6$1 -->
<g id="edge1" class="edge">
<title>(*sync.Map).Range&#45;&gt;git/omc_log_system/proxy.creatRouter$6$1</title>
<path fill="none" stroke="saddlebrown" stroke-dasharray="5,2" d="M601.54,-1047.59C621.37,-1042.44 643.39,-1035.37 662.33,-1026 698.74,-1007.99 698.99,-989.17 735.33,-971 749.96,-963.68 766.61,-957.82 782.35,-953.25"/>
<polygon fill="saddlebrown" stroke="saddlebrown" points="783.3,-956.61 792,-950.57 781.43,-949.87 783.3,-956.61"/>
</g>
<!-- git/omc_log_system/proxy.creatRouter$6$2 -->
<g id="node3" class="node">
<title>git/omc_log_system/proxy.creatRouter$6$2</title>
<ellipse fill="lightblue" stroke="black" stroke-dasharray="1,5" cx="843.51" cy="-1001" rx="63.01" ry="18"/>
<text text-anchor="middle" x="843.51" y="-997.3" font-family="Verdana" font-size="14.00">creatRouter$6$2</text>
</g>
<!-- (*sync.Map).Range&#45;&gt;git/omc_log_system/proxy.creatRouter$6$2 -->
<g id="edge3" class="edge">
<title>(*sync.Map).Range&#45;&gt;git/omc_log_system/proxy.creatRouter$6$2</title>
<path fill="none" stroke="saddlebrown" stroke-dasharray="5,2" d="M601.99,-1047.82C653.31,-1037.83 728.28,-1023.23 780.84,-1013"/>
<polygon fill="saddlebrown" stroke="saddlebrown" points="781.57,-1016.43 790.72,-1011.08 780.23,-1009.56 781.57,-1016.43"/>
</g>
<!-- git/omc_log_system/proxy.creatRouter$6$3 -->
<g id="node5" class="node">
<title>git/omc_log_system/proxy.creatRouter$6$3</title>
<ellipse fill="lightblue" stroke="black" stroke-dasharray="1,5" cx="843.51" cy="-1062" rx="63.01" ry="18"/>
<text text-anchor="middle" x="843.51" y="-1058.3" font-family="Verdana" font-size="14.00">creatRouter$6$3</text>
</g>
<!-- (*sync.Map).Range&#45;&gt;git/omc_log_system/proxy.creatRouter$6$3 -->
<g id="edge5" class="edge">
<title>(*sync.Map).Range&#45;&gt;git/omc_log_system/proxy.creatRouter$6$3</title>
<path fill="none" stroke="saddlebrown" stroke-dasharray="5,2" d="M612.15,-1059.68C659.28,-1060.16 722.08,-1060.79 770.21,-1061.27"/>
<polygon fill="saddlebrown" stroke="saddlebrown" points="770.21,-1064.77 780.25,-1061.37 770.28,-1057.77 770.21,-1064.77"/>
</g>
<!-- git/omc_log_system/proxy.creatRouter$7$1 -->
<g id="node6" class="node">
<title>git/omc_log_system/proxy.creatRouter$7$1</title>
<ellipse fill="lightblue" stroke="black" stroke-dasharray="1,5" cx="843.51" cy="-757" rx="63.01" ry="18"/>
<text text-anchor="middle" x="843.51" y="-753.3" font-family="Verdana" font-size="14.00">creatRouter$7$1</text>
</g>
<!-- (*sync.Map).Range&#45;&gt;git/omc_log_system/proxy.creatRouter$7$1 -->
<g id="edge6" class="edge">
<title>(*sync.Map).Range&#45;&gt;git/omc_log_system/proxy.creatRouter$7$1</title>
<path fill="none" stroke="saddlebrown" stroke-dasharray="5,2" d="M609.18,-1052.83C628.36,-1048.1 648.04,-1039.94 662.33,-1026 701.92,-987.36 695.9,-826.8 735.33,-788 745.93,-777.57 759.81,-770.6 774.06,-765.97"/>
<polygon fill="saddlebrown" stroke="saddlebrown" points="775.3,-769.25 783.94,-763.12 773.36,-762.53 775.3,-769.25"/>
</g>
<!-- git/omc_log_system/proxy.creatRouter$8$1 -->
<g id="node7" class="node">
<title>git/omc_log_system/proxy.creatRouter$8$1</title>
<ellipse fill="lightblue" stroke="black" stroke-dasharray="1,5" cx="843.51" cy="-818" rx="63.01" ry="18"/>
<text text-anchor="middle" x="843.51" y="-814.3" font-family="Verdana" font-size="14.00">creatRouter$8$1</text>
</g>
<!-- (*sync.Map).Range&#45;&gt;git/omc_log_system/proxy.creatRouter$8$1 -->
<g id="edge7" class="edge">
<title>(*sync.Map).Range&#45;&gt;git/omc_log_system/proxy.creatRouter$8$1</title>
<path fill="none" stroke="saddlebrown" stroke-dasharray="5,2" d="M608.42,-1052.01C627.56,-1047.23 647.4,-1039.26 662.33,-1026 725.94,-969.48 671.95,-905.78 735.33,-849 746.46,-839.02 760.63,-832.24 774.98,-827.64"/>
<polygon fill="saddlebrown" stroke="saddlebrown" points="776.27,-830.91 784.92,-824.79 774.34,-824.18 776.27,-830.91"/>
</g>
<!-- git/omc_log_system/proxy.creatRouter$9$1 -->
<g id="node8" class="node">
<title>git/omc_log_system/proxy.creatRouter$9$1</title>
<ellipse fill="lightblue" stroke="black" stroke-dasharray="1,5" cx="843.51" cy="-879" rx="63.01" ry="18"/>
<text text-anchor="middle" x="843.51" y="-875.3" font-family="Verdana" font-size="14.00">creatRouter$9$1</text>
</g>
<!-- (*sync.Map).Range&#45;&gt;git/omc_log_system/proxy.creatRouter$9$1 -->
<g id="edge8" class="edge">
<title>(*sync.Map).Range&#45;&gt;git/omc_log_system/proxy.creatRouter$9$1</title>
<path fill="none" stroke="saddlebrown" stroke-dasharray="5,2" d="M606.52,-1050.58C625.77,-1045.72 646.16,-1038.07 662.33,-1026 711.15,-989.57 686.66,-946.64 735.33,-910 747.4,-900.91 762.06,-894.48 776.62,-889.94"/>
<polygon fill="saddlebrown" stroke="saddlebrown" points="777.99,-893.19 786.65,-887.08 776.08,-886.46 777.99,-893.19"/>
</g>
<!-- (git/omc_log_system/core.SubOption).GetInfo -->
<g id="node4" class="node">
<title>(git/omc_log_system/core.SubOption).GetInfo</title>
<ellipse fill="moccasin" stroke="black" stroke-width="1.5" cx="1122.28" cy="-1022" rx="97.66" ry="21.43"/>
<text text-anchor="middle" x="1122.28" y="-1025.8" font-family="Verdana" font-size="14.00">core</text>
<text text-anchor="middle" x="1122.28" y="-1010.8" font-family="Verdana" font-size="14.00">(SubOption).GetInfo</text>
</g>
<!-- git/omc_log_system/proxy.creatRouter$6$2&#45;&gt;(git/omc_log_system/core.SubOption).GetInfo -->
<g id="edge2" class="edge">
<title>git/omc_log_system/proxy.creatRouter$6$2&#45;&gt;(git/omc_log_system/core.SubOption).GetInfo</title>
<path fill="none" stroke="saddlebrown" d="M904.91,-1005.58C938.49,-1008.13 981.17,-1011.37 1019.73,-1014.29"/>
<polygon fill="saddlebrown" stroke="saddlebrown" points="1019.73,-1017.8 1029.96,-1015.07 1020.26,-1010.82 1019.73,-1017.8"/>
</g>
<!-- git/omc_log_system/proxy.creatRouter$6$3&#45;&gt;(git/omc_log_system/core.SubOption).GetInfo -->
<g id="edge4" class="edge">
<title>git/omc_log_system/proxy.creatRouter$6$3&#45;&gt;(git/omc_log_system/core.SubOption).GetInfo</title>
<path fill="none" stroke="saddlebrown" d="M900.19,-1053.95C937.53,-1048.56 987.57,-1041.32 1030.6,-1035.11"/>
<polygon fill="saddlebrown" stroke="saddlebrown" points="1031.12,-1038.57 1040.51,-1033.67 1030.12,-1031.64 1031.12,-1038.57"/>
</g>
<!-- git/omc_log_system/proxy.creatRouter$3 -->
<g id="node9" class="node">
<title>git/omc_log_system/proxy.creatRouter$3</title>
<ellipse fill="lightblue" stroke="black" stroke-dasharray="1,5" cx="296.74" cy="-812" rx="55" ry="18"/>
<text text-anchor="middle" x="296.74" y="-808.3" font-family="Verdana" font-size="14.00">creatRouter$3</text>
</g>
<!-- (*github.com/gin&#45;gonic/gin.Context).Param -->
<g id="node10" class="node">
<title>(*github.com/gin&#45;gonic/gin.Context).Param</title>
<ellipse fill="moccasin" stroke="black" stroke-width="1.5" cx="543.53" cy="-791" rx="85.62" ry="21.43"/>
<text text-anchor="middle" x="543.53" y="-794.8" font-family="Verdana" font-size="14.00">gin</text>
<text text-anchor="middle" x="543.53" y="-779.8" font-family="Verdana" font-size="14.00">(*Context).Param</text>
</g>
<!-- git/omc_log_system/proxy.creatRouter$3&#45;&gt;(*github.com/gin&#45;gonic/gin.Context).Param -->
<g id="edge9" class="edge">
<title>git/omc_log_system/proxy.creatRouter$3&#45;&gt;(*github.com/gin&#45;gonic/gin.Context).Param</title>
<path fill="none" stroke="saddlebrown" d="M350.25,-807.49C379.92,-804.95 417.82,-801.7 452.11,-798.76"/>
<polygon fill="saddlebrown" stroke="saddlebrown" points="452.49,-802.24 462.16,-797.9 451.89,-795.26 452.49,-802.24"/>
</g>
<!-- (*git/omc_log_system/core.redux).RemovePub -->
<g id="node11" class="node">
<title>(*git/omc_log_system/core.redux).RemovePub</title>
<ellipse fill="moccasin" stroke="black" stroke-width="1.5" cx="543.53" cy="-925" rx="101.65" ry="21.43"/>
<text text-anchor="middle" x="543.53" y="-928.8" font-family="Verdana" font-size="14.00">core</text>
<text text-anchor="middle" x="543.53" y="-913.8" font-family="Verdana" font-size="14.00">(*redux).RemovePub</text>
</g>
<!-- git/omc_log_system/proxy.creatRouter$3&#45;&gt;(*git/omc_log_system/core.redux).RemovePub -->
<g id="edge10" class="edge">
<title>git/omc_log_system/proxy.creatRouter$3&#45;&gt;(*git/omc_log_system/core.redux).RemovePub</title>
<path fill="none" stroke="saddlebrown" d="M325.43,-827.4C333.94,-832.27 343.29,-837.75 351.74,-843 384.93,-863.63 389.26,-875.63 424.74,-892 437,-897.65 450.43,-902.54 463.7,-906.68"/>
<polygon fill="saddlebrown" stroke="saddlebrown" points="462.73,-910.04 473.32,-909.57 464.75,-903.34 462.73,-910.04"/>
</g>
<!-- (*github.com/gin&#45;gonic/gin.Context).String -->
<g id="node12" class="node">
<title>(*github.com/gin&#45;gonic/gin.Context).String</title>
<ellipse fill="moccasin" stroke="black" stroke-width="1.5" cx="543.53" cy="-657" rx="82.96" ry="21.43"/>
<text text-anchor="middle" x="543.53" y="-660.8" font-family="Verdana" font-size="14.00">gin</text>
<text text-anchor="middle" x="543.53" y="-645.8" font-family="Verdana" font-size="14.00">(*Context).String</text>
</g>
<!-- git/omc_log_system/proxy.creatRouter$3&#45;&gt;(*github.com/gin&#45;gonic/gin.Context).String -->
<g id="edge11" class="edge">
<title>git/omc_log_system/proxy.creatRouter$3&#45;&gt;(*github.com/gin&#45;gonic/gin.Context).String</title>
<path fill="none" stroke="saddlebrown" d="M329.09,-797.31C336.89,-792.94 344.95,-787.76 351.74,-782 391.54,-748.23 381.27,-718.89 424.74,-690 436.48,-682.2 450.05,-676.22 463.72,-671.65"/>
<polygon fill="saddlebrown" stroke="saddlebrown" points="465.15,-674.87 473.66,-668.56 463.07,-668.19 465.15,-674.87"/>
</g>
<!-- git/omc_log_system/proxy.creatRouter$1 -->
<g id="node13" class="node">
<title>git/omc_log_system/proxy.creatRouter$1</title>
<ellipse fill="lightblue" stroke="black" stroke-dasharray="1,5" cx="296.74" cy="-594" rx="55" ry="18"/>
<text text-anchor="middle" x="296.74" y="-590.3" font-family="Verdana" font-size="14.00">creatRouter$1</text>
</g>
<!-- git/omc_log_system/proxy.creatRouter$1&#45;&gt;(*github.com/gin&#45;gonic/gin.Context).Param -->
<g id="edge12" class="edge">
<title>git/omc_log_system/proxy.creatRouter$1&#45;&gt;(*github.com/gin&#45;gonic/gin.Context).Param</title>
<path fill="none" stroke="saddlebrown" d="M314.14,-611.1C325.15,-622.85 339.78,-638.98 351.74,-654 386.91,-698.18 378.65,-725.37 424.74,-758 435.83,-765.85 448.73,-771.84 461.85,-776.4"/>
<polygon fill="saddlebrown" stroke="saddlebrown" points="460.82,-779.75 471.42,-779.48 462.97,-773.09 460.82,-779.75"/>
</g>
<!-- git/omc_log_system/proxy.creatRouter$1&#45;&gt;(*github.com/gin&#45;gonic/gin.Context).String -->
<g id="edge14" class="edge">
<title>git/omc_log_system/proxy.creatRouter$1&#45;&gt;(*github.com/gin&#45;gonic/gin.Context).String</title>
<path fill="none" stroke="saddlebrown" d="M340.38,-604.97C377.36,-614.49 431.55,-628.44 474.51,-639.49"/>
<polygon fill="saddlebrown" stroke="saddlebrown" points="473.78,-642.92 484.34,-642.02 475.52,-636.14 473.78,-642.92"/>
</g>
<!-- (*git/omc_log_system/core.redux).AddPub -->
<g id="node14" class="node">
<title>(*git/omc_log_system/core.redux).AddPub</title>
<ellipse fill="moccasin" stroke="black" stroke-width="1.5" cx="543.53" cy="-590" rx="82.96" ry="21.43"/>
<text text-anchor="middle" x="543.53" y="-593.8" font-family="Verdana" font-size="14.00">core</text>
<text text-anchor="middle" x="543.53" y="-578.8" font-family="Verdana" font-size="14.00">(*redux).AddPub</text>
</g>
<!-- git/omc_log_system/proxy.creatRouter$1&#45;&gt;(*git/omc_log_system/core.redux).AddPub -->
<g id="edge13" class="edge">
<title>git/omc_log_system/proxy.creatRouter$1&#45;&gt;(*git/omc_log_system/core.redux).AddPub</title>
<path fill="none" stroke="saddlebrown" d="M327.73,-579.1C344.85,-571.43 366.98,-562.89 387.74,-559 404.84,-555.79 443.05,-563.39 477.23,-571.87"/>
<polygon fill="saddlebrown" stroke="saddlebrown" points="476.66,-575.33 487.21,-574.39 478.38,-568.55 476.66,-575.33"/>
</g>
<!-- (*github.com/gin&#45;gonic/gin.Context).Next -->
<g id="node15" class="node">
<title>(*github.com/gin&#45;gonic/gin.Context).Next</title>
<ellipse fill="moccasin" stroke="black" stroke-width="1.5" cx="92.37" cy="-812" rx="76.24" ry="21.43"/>
<text text-anchor="middle" x="92.37" y="-815.8" font-family="Verdana" font-size="14.00">gin</text>
<text text-anchor="middle" x="92.37" y="-800.8" font-family="Verdana" font-size="14.00">(*Context).Next</text>
</g>
<!-- (*github.com/gin&#45;gonic/gin.Context).Next&#45;&gt;git/omc_log_system/proxy.creatRouter$3 -->
<g id="edge22" class="edge">
<title>(*github.com/gin&#45;gonic/gin.Context).Next&#45;&gt;git/omc_log_system/proxy.creatRouter$3</title>
<path fill="none" stroke="saddlebrown" stroke-dasharray="5,2" d="M169.01,-812C189.56,-812 211.62,-812 231.48,-812"/>
<polygon fill="saddlebrown" stroke="saddlebrown" points="231.65,-815.5 241.65,-812 231.65,-808.5 231.65,-815.5"/>
</g>
<!-- (*github.com/gin&#45;gonic/gin.Context).Next&#45;&gt;git/omc_log_system/proxy.creatRouter$1 -->
<g id="edge15" class="edge">
<title>(*github.com/gin&#45;gonic/gin.Context).Next&#45;&gt;git/omc_log_system/proxy.creatRouter$1</title>
<path fill="none" stroke="saddlebrown" stroke-dasharray="5,2" d="M112.41,-791.49C149.73,-751.28 232.4,-662.22 272.72,-618.79"/>
<polygon fill="saddlebrown" stroke="saddlebrown" points="275.5,-620.94 279.74,-611.23 270.37,-616.18 275.5,-620.94"/>
</g>
<!-- git/omc_log_system/proxy.creatRouter$2 -->
<g id="node16" class="node">
<title>git/omc_log_system/proxy.creatRouter$2</title>
<ellipse fill="lightblue" stroke="black" stroke-dasharray="1,5" cx="296.74" cy="-471" rx="55" ry="18"/>
<text text-anchor="middle" x="296.74" y="-467.3" font-family="Verdana" font-size="14.00">creatRouter$2</text>
</g>
<!-- (*github.com/gin&#45;gonic/gin.Context).Next&#45;&gt;git/omc_log_system/proxy.creatRouter$2 -->
<g id="edge21" class="edge">
<title>(*github.com/gin&#45;gonic/gin.Context).Next&#45;&gt;git/omc_log_system/proxy.creatRouter$2</title>
<path fill="none" stroke="saddlebrown" stroke-dasharray="5,2" d="M105.87,-790.93C141.03,-731.69 240.69,-563.75 279.75,-497.93"/>
<polygon fill="saddlebrown" stroke="saddlebrown" points="282.97,-499.38 285.06,-488.99 276.95,-495.8 282.97,-499.38"/>
</g>
<!-- git/omc_log_system/proxy.creatRouter$4 -->
<g id="node21" class="node">
<title>git/omc_log_system/proxy.creatRouter$4</title>
<ellipse fill="lightblue" stroke="black" stroke-dasharray="1,5" cx="296.74" cy="-684" rx="55" ry="18"/>
<text text-anchor="middle" x="296.74" y="-680.3" font-family="Verdana" font-size="14.00">creatRouter$4</text>
</g>
<!-- (*github.com/gin&#45;gonic/gin.Context).Next&#45;&gt;git/omc_log_system/proxy.creatRouter$4 -->
<g id="edge26" class="edge">
<title>(*github.com/gin&#45;gonic/gin.Context).Next&#45;&gt;git/omc_log_system/proxy.creatRouter$4</title>
<path fill="none" stroke="saddlebrown" stroke-dasharray="5,2" d="M124.1,-792.56C161.16,-769.12 223.24,-729.85 261.71,-705.52"/>
<polygon fill="saddlebrown" stroke="saddlebrown" points="263.9,-708.28 270.48,-699.97 260.16,-702.36 263.9,-708.28"/>
</g>
<!-- git/omc_log_system/proxy.creatRouter$5 -->
<g id="node23" class="node">
<title>git/omc_log_system/proxy.creatRouter$5</title>
<ellipse fill="lightblue" stroke="black" stroke-dasharray="1,5" cx="296.74" cy="-751" rx="55" ry="18"/>
<text text-anchor="middle" x="296.74" y="-747.3" font-family="Verdana" font-size="14.00">creatRouter$5</text>
</g>
<!-- (*github.com/gin&#45;gonic/gin.Context).Next&#45;&gt;git/omc_log_system/proxy.creatRouter$5 -->
<g id="edge31" class="edge">
<title>(*github.com/gin&#45;gonic/gin.Context).Next&#45;&gt;git/omc_log_system/proxy.creatRouter$5</title>
<path fill="none" stroke="saddlebrown" stroke-dasharray="5,2" d="M144.7,-796.53C175.76,-787.16 215.18,-775.28 245.96,-766"/>
<polygon fill="saddlebrown" stroke="saddlebrown" points="247.07,-769.33 255.63,-763.09 245.05,-762.62 247.07,-769.33"/>
</g>
<!-- git/omc_log_system/proxy.creatRouter$6 -->
<g id="node25" class="node">
<title>git/omc_log_system/proxy.creatRouter$6</title>
<ellipse fill="lightblue" stroke="black" stroke-dasharray="1,5" cx="296.74" cy="-995" rx="55" ry="18"/>
<text text-anchor="middle" x="296.74" y="-991.3" font-family="Verdana" font-size="14.00">creatRouter$6</text>
</g>
<!-- (*github.com/gin&#45;gonic/gin.Context).Next&#45;&gt;git/omc_log_system/proxy.creatRouter$6 -->
<g id="edge34" class="edge">
<title>(*github.com/gin&#45;gonic/gin.Context).Next&#45;&gt;git/omc_log_system/proxy.creatRouter$6</title>
<path fill="none" stroke="saddlebrown" stroke-dasharray="5,2" d="M109.99,-832.69C135.85,-863.99 188.29,-924.04 241.74,-965 246.37,-968.55 251.48,-971.95 256.64,-975.1"/>
<polygon fill="saddlebrown" stroke="saddlebrown" points="254.92,-978.15 265.33,-980.15 258.44,-972.1 254.92,-978.15"/>
</g>
<!-- git/omc_log_system/proxy.creatRouter$7 -->
<g id="node27" class="node">
<title>git/omc_log_system/proxy.creatRouter$7</title>
<ellipse fill="lightblue" stroke="black" stroke-dasharray="1,5" cx="296.74" cy="-1056" rx="55" ry="18"/>
<text text-anchor="middle" x="296.74" y="-1052.3" font-family="Verdana" font-size="14.00">creatRouter$7</text>
</g>
<!-- (*github.com/gin&#45;gonic/gin.Context).Next&#45;&gt;git/omc_log_system/proxy.creatRouter$7 -->
<g id="edge37" class="edge">
<title>(*github.com/gin&#45;gonic/gin.Context).Next&#45;&gt;git/omc_log_system/proxy.creatRouter$7</title>
<path fill="none" stroke="saddlebrown" stroke-dasharray="5,2" d="M103.82,-833.22C125.04,-874.59 176.72,-967.13 241.74,-1026 245.81,-1029.69 250.42,-1033.1 255.18,-1036.21"/>
<polygon fill="saddlebrown" stroke="saddlebrown" points="253.47,-1039.26 263.84,-1041.44 257.1,-1033.27 253.47,-1039.26"/>
</g>
<!-- git/omc_log_system/proxy.creatRouter$8 -->
<g id="node28" class="node">
<title>git/omc_log_system/proxy.creatRouter$8</title>
<ellipse fill="lightblue" stroke="black" stroke-dasharray="1,5" cx="296.74" cy="-934" rx="55" ry="18"/>
<text text-anchor="middle" x="296.74" y="-930.3" font-family="Verdana" font-size="14.00">creatRouter$8</text>
</g>
<!-- (*github.com/gin&#45;gonic/gin.Context).Next&#45;&gt;git/omc_log_system/proxy.creatRouter$8 -->
<g id="edge40" class="edge">
<title>(*github.com/gin&#45;gonic/gin.Context).Next&#45;&gt;git/omc_log_system/proxy.creatRouter$8</title>
<path fill="none" stroke="saddlebrown" stroke-dasharray="5,2" d="M123.8,-831.46C153.6,-850.39 200.44,-879.75 241.74,-904 247.2,-907.21 253.01,-910.53 258.73,-913.75"/>
<polygon fill="saddlebrown" stroke="saddlebrown" points="257.13,-916.86 267.56,-918.68 260.54,-910.75 257.13,-916.86"/>
</g>
<!-- git/omc_log_system/proxy.creatRouter$9 -->
<g id="node29" class="node">
<title>git/omc_log_system/proxy.creatRouter$9</title>
<ellipse fill="lightblue" stroke="black" stroke-dasharray="1,5" cx="296.74" cy="-873" rx="55" ry="18"/>
<text text-anchor="middle" x="296.74" y="-869.3" font-family="Verdana" font-size="14.00">creatRouter$9</text>
</g>
<!-- (*github.com/gin&#45;gonic/gin.Context).Next&#45;&gt;git/omc_log_system/proxy.creatRouter$9 -->
<g id="edge43" class="edge">
<title>(*github.com/gin&#45;gonic/gin.Context).Next&#45;&gt;git/omc_log_system/proxy.creatRouter$9</title>
<path fill="none" stroke="saddlebrown" stroke-dasharray="5,2" d="M144.7,-827.47C175.76,-836.84 215.18,-848.72 245.96,-858"/>
<polygon fill="saddlebrown" stroke="saddlebrown" points="245.05,-861.38 255.63,-860.91 247.07,-854.67 245.05,-861.38"/>
</g>
<!-- git/omc_log_system/proxy.creatRouter$2&#45;&gt;(*github.com/gin&#45;gonic/gin.Context).String -->
<g id="edge18" class="edge">
<title>git/omc_log_system/proxy.creatRouter$2&#45;&gt;(*github.com/gin&#45;gonic/gin.Context).String</title>
<path fill="none" stroke="saddlebrown" d="M307.59,-488.89C326.18,-520.96 369.57,-588.2 424.74,-624 436.75,-631.8 450.61,-637.77 464.51,-642.35"/>
<polygon fill="saddlebrown" stroke="saddlebrown" points="463.53,-645.71 474.12,-645.3 465.58,-639.02 463.53,-645.71"/>
</g>
<!-- git/omc_log_system/core.NewSubOption -->
<g id="node17" class="node">
<title>git/omc_log_system/core.NewSubOption</title>
<ellipse fill="moccasin" stroke="black" stroke-width="1.5" cx="543.53" cy="-456" rx="75.82" ry="21.43"/>
<text text-anchor="middle" x="543.53" y="-459.8" font-family="Verdana" font-size="14.00">core</text>
<text text-anchor="middle" x="543.53" y="-444.8" font-family="Verdana" font-size="14.00">NewSubOption</text>
</g>
<!-- git/omc_log_system/proxy.creatRouter$2&#45;&gt;git/omc_log_system/core.NewSubOption -->
<g id="edge16" class="edge">
<title>git/omc_log_system/proxy.creatRouter$2&#45;&gt;git/omc_log_system/core.NewSubOption</title>
<path fill="none" stroke="saddlebrown" d="M350.85,-467.75C382.6,-465.8 423.62,-463.29 459.56,-461.08"/>
<polygon fill="saddlebrown" stroke="saddlebrown" points="459.79,-464.58 469.55,-460.47 459.36,-457.59 459.79,-464.58"/>
</g>
<!-- (*github.com/gin&#45;gonic/gin.Context).BindJSON -->
<g id="node18" class="node">
<title>(*github.com/gin&#45;gonic/gin.Context).BindJSON</title>
<ellipse fill="moccasin" stroke="black" stroke-width="1.5" cx="543.53" cy="-523" rx="101.65" ry="21.43"/>
<text text-anchor="middle" x="543.53" y="-526.8" font-family="Verdana" font-size="14.00">gin</text>
<text text-anchor="middle" x="543.53" y="-511.8" font-family="Verdana" font-size="14.00">(*Context).BindJSON</text>
</g>
<!-- git/omc_log_system/proxy.creatRouter$2&#45;&gt;(*github.com/gin&#45;gonic/gin.Context).BindJSON -->
<g id="edge17" class="edge">
<title>git/omc_log_system/proxy.creatRouter$2&#45;&gt;(*github.com/gin&#45;gonic/gin.Context).BindJSON</title>
<path fill="none" stroke="saddlebrown" d="M343.21,-480.66C376.35,-487.7 422.14,-497.43 461.48,-505.78"/>
<polygon fill="saddlebrown" stroke="saddlebrown" points="460.82,-509.22 471.33,-507.88 462.28,-502.37 460.82,-509.22"/>
</g>
<!-- (*git/omc_log_system/core.SubOption).IsInfoRight -->
<g id="node19" class="node">
<title>(*git/omc_log_system/core.SubOption).IsInfoRight</title>
<ellipse fill="moccasin" stroke="black" stroke-width="1.5" cx="543.53" cy="-322" rx="118.59" ry="21.43"/>
<text text-anchor="middle" x="543.53" y="-325.8" font-family="Verdana" font-size="14.00">core</text>
<text text-anchor="middle" x="543.53" y="-310.8" font-family="Verdana" font-size="14.00">(*SubOption).IsInfoRight</text>
</g>
<!-- git/omc_log_system/proxy.creatRouter$2&#45;&gt;(*git/omc_log_system/core.SubOption).IsInfoRight -->
<g id="edge19" class="edge">
<title>git/omc_log_system/proxy.creatRouter$2&#45;&gt;(*git/omc_log_system/core.SubOption).IsInfoRight</title>
<path fill="none" stroke="saddlebrown" d="M312.24,-453.3C334.05,-427.84 377.74,-381.08 424.74,-355 434.43,-349.62 445.07,-345.06 455.87,-341.21"/>
<polygon fill="saddlebrown" stroke="saddlebrown" points="457.02,-344.52 465.38,-338.01 454.78,-337.89 457.02,-344.52"/>
</g>
<!-- (*git/omc_log_system/core.redux).AddSub -->
<g id="node20" class="node">
<title>(*git/omc_log_system/core.redux).AddSub</title>
<ellipse fill="moccasin" stroke="black" stroke-width="1.5" cx="543.53" cy="-389" rx="82.96" ry="21.43"/>
<text text-anchor="middle" x="543.53" y="-392.8" font-family="Verdana" font-size="14.00">core</text>
<text text-anchor="middle" x="543.53" y="-377.8" font-family="Verdana" font-size="14.00">(*redux).AddSub</text>
</g>
<!-- git/omc_log_system/proxy.creatRouter$2&#45;&gt;(*git/omc_log_system/core.redux).AddSub -->
<g id="edge20" class="edge">
<title>git/omc_log_system/proxy.creatRouter$2&#45;&gt;(*git/omc_log_system/core.redux).AddSub</title>
<path fill="none" stroke="saddlebrown" d="M331.38,-457.01C356.8,-446.69 392.67,-432.65 424.74,-422 440.76,-416.68 458.19,-411.48 474.61,-406.84"/>
<polygon fill="saddlebrown" stroke="saddlebrown" points="475.99,-410.09 484.68,-404.03 474.11,-403.35 475.99,-410.09"/>
</g>
<!-- git/omc_log_system/proxy.creatRouter$4&#45;&gt;(*github.com/gin&#45;gonic/gin.Context).Param -->
<g id="edge23" class="edge">
<title>git/omc_log_system/proxy.creatRouter$4&#45;&gt;(*github.com/gin&#45;gonic/gin.Context).Param</title>
<path fill="none" stroke="saddlebrown" d="M321.59,-700.39C346.43,-716.85 386.9,-741.99 424.74,-758 439.1,-764.08 454.91,-769.38 470.16,-773.86"/>
<polygon fill="saddlebrown" stroke="saddlebrown" points="469.5,-777.31 480.08,-776.68 471.42,-770.58 469.5,-777.31"/>
</g>
<!-- git/omc_log_system/proxy.creatRouter$4&#45;&gt;(*github.com/gin&#45;gonic/gin.Context).String -->
<g id="edge25" class="edge">
<title>git/omc_log_system/proxy.creatRouter$4&#45;&gt;(*github.com/gin&#45;gonic/gin.Context).String</title>
<path fill="none" stroke="saddlebrown" d="M322.57,-668.02C340.03,-657.77 364.35,-645.41 387.74,-640 416.24,-633.41 448.31,-635.42 475.83,-639.95"/>
<polygon fill="saddlebrown" stroke="saddlebrown" points="475.29,-643.41 485.75,-641.72 476.52,-636.52 475.29,-643.41"/>
</g>
<!-- (*git/omc_log_system/core.redux).RemoveSub -->
<g id="node22" class="node">
<title>(*git/omc_log_system/core.redux).RemoveSub</title>
<ellipse fill="moccasin" stroke="black" stroke-width="1.5" cx="543.53" cy="-724" rx="101.23" ry="21.43"/>
<text text-anchor="middle" x="543.53" y="-727.8" font-family="Verdana" font-size="14.00">core</text>
<text text-anchor="middle" x="543.53" y="-712.8" font-family="Verdana" font-size="14.00">(*redux).RemoveSub</text>
</g>
<!-- git/omc_log_system/proxy.creatRouter$4&#45;&gt;(*git/omc_log_system/core.redux).RemoveSub -->
<g id="edge24" class="edge">
<title>git/omc_log_system/proxy.creatRouter$4&#45;&gt;(*git/omc_log_system/core.redux).RemoveSub</title>
<path fill="none" stroke="saddlebrown" d="M346.39,-691.95C376.85,-696.93 417.03,-703.49 453.08,-709.38"/>
<polygon fill="saddlebrown" stroke="saddlebrown" points="452.7,-712.87 463.13,-711.03 453.83,-705.96 452.7,-712.87"/>
</g>
<!-- git/omc_log_system/proxy.creatRouter$5&#45;&gt;(*github.com/gin&#45;gonic/gin.Context).Param -->
<g id="edge27" class="edge">
<title>git/omc_log_system/proxy.creatRouter$5&#45;&gt;(*github.com/gin&#45;gonic/gin.Context).Param</title>
<path fill="none" stroke="saddlebrown" d="M346.39,-758.95C379.29,-764.33 423.51,-771.55 461.64,-777.78"/>
<polygon fill="saddlebrown" stroke="saddlebrown" points="461.27,-781.27 471.7,-779.43 462.4,-774.36 461.27,-781.27"/>
</g>
<!-- git/omc_log_system/proxy.creatRouter$5&#45;&gt;(*github.com/gin&#45;gonic/gin.Context).String -->
<g id="edge30" class="edge">
<title>git/omc_log_system/proxy.creatRouter$5&#45;&gt;(*github.com/gin&#45;gonic/gin.Context).String</title>
<path fill="none" stroke="saddlebrown" d="M326.36,-735.47C351.7,-722.16 389.95,-703.11 424.74,-690 440.13,-684.2 456.98,-678.89 473.01,-674.3"/>
<polygon fill="saddlebrown" stroke="saddlebrown" points="474.18,-677.61 482.86,-671.54 472.29,-670.87 474.18,-677.61"/>
</g>
<!-- git/omc_log_system/proxy.creatRouter$5&#45;&gt;(*github.com/gin&#45;gonic/gin.Context).BindJSON -->
<g id="edge29" class="edge">
<title>git/omc_log_system/proxy.creatRouter$5&#45;&gt;(*github.com/gin&#45;gonic/gin.Context).BindJSON</title>
<path fill="none" stroke="saddlebrown" d="M326.7,-735.85C335.56,-730.2 344.79,-723.14 351.74,-715 402.22,-655.86 365.61,-606.49 424.74,-556 432.76,-549.15 442.09,-543.72 451.93,-539.41"/>
<polygon fill="saddlebrown" stroke="saddlebrown" points="453.5,-542.56 461.5,-535.62 450.91,-536.05 453.5,-542.56"/>
</g>
<!-- (*sync.Map).Load -->
<g id="node24" class="node">
<title>(*sync.Map).Load</title>
<ellipse fill="#adedad" stroke="black" stroke-width="1.5" cx="543.53" cy="-858" rx="63.78" ry="21.43"/>
<text text-anchor="middle" x="543.53" y="-861.8" font-family="Verdana" font-size="14.00">sync</text>
<text text-anchor="middle" x="543.53" y="-846.8" font-family="Verdana" font-size="14.00">(*Map).Load</text>
</g>
<!-- git/omc_log_system/proxy.creatRouter$5&#45;&gt;(*sync.Map).Load -->
<g id="edge28" class="edge">
<title>git/omc_log_system/proxy.creatRouter$5&#45;&gt;(*sync.Map).Load</title>
<path fill="none" stroke="saddlebrown" d="M324.97,-766.55C333.54,-771.47 343.05,-776.95 351.74,-782 384.29,-800.93 390.1,-810.24 424.74,-825 442.29,-832.48 462.04,-838.77 480.27,-843.79"/>
<polygon fill="saddlebrown" stroke="saddlebrown" points="479.37,-847.17 489.93,-846.38 481.18,-840.41 479.37,-847.17"/>
</g>
<!-- git/omc_log_system/proxy.creatRouter$6&#45;&gt;(*sync.Map).Range -->
<g id="edge32" class="edge">
<title>git/omc_log_system/proxy.creatRouter$6&#45;&gt;(*sync.Map).Range</title>
<path fill="none" stroke="saddlebrown" d="M340.1,-1006.07C378.9,-1016.22 436.81,-1031.36 480.77,-1042.85"/>
<polygon fill="saddlebrown" stroke="saddlebrown" points="479.93,-1046.25 490.49,-1045.39 481.7,-1039.48 479.93,-1046.25"/>
</g>
<!-- (*github.com/gin&#45;gonic/gin.Context).JSON -->
<g id="node26" class="node">
<title>(*github.com/gin&#45;gonic/gin.Context).JSON</title>
<ellipse fill="moccasin" stroke="black" stroke-width="1.5" cx="543.53" cy="-992" rx="80.72" ry="21.43"/>
<text text-anchor="middle" x="543.53" y="-995.8" font-family="Verdana" font-size="14.00">gin</text>
<text text-anchor="middle" x="543.53" y="-980.8" font-family="Verdana" font-size="14.00">(*Context).JSON</text>
</g>
<!-- git/omc_log_system/proxy.creatRouter$6&#45;&gt;(*github.com/gin&#45;gonic/gin.Context).JSON -->
<g id="edge33" class="edge">
<title>git/omc_log_system/proxy.creatRouter$6&#45;&gt;(*github.com/gin&#45;gonic/gin.Context).JSON</title>
<path fill="none" stroke="saddlebrown" d="M351.76,-994.34C381.24,-993.98 418.5,-993.52 452.26,-993.11"/>
<polygon fill="saddlebrown" stroke="saddlebrown" points="452.65,-996.6 462.61,-992.98 452.57,-989.6 452.65,-996.6"/>
</g>
<!-- git/omc_log_system/proxy.creatRouter$7&#45;&gt;(*sync.Map).Range -->
<g id="edge35" class="edge">
<title>git/omc_log_system/proxy.creatRouter$7&#45;&gt;(*sync.Map).Range</title>
<path fill="none" stroke="saddlebrown" d="M351.51,-1058.09C363.44,-1058.47 376.02,-1058.8 387.74,-1059 412.77,-1059.42 440.09,-1059.53 464.71,-1059.51"/>
<polygon fill="saddlebrown" stroke="saddlebrown" points="464.72,-1063.01 474.71,-1059.49 464.71,-1056.01 464.72,-1063.01"/>
</g>
<!-- git/omc_log_system/proxy.creatRouter$7&#45;&gt;(*github.com/gin&#45;gonic/gin.Context).JSON -->
<g id="edge36" class="edge">
<title>git/omc_log_system/proxy.creatRouter$7&#45;&gt;(*github.com/gin&#45;gonic/gin.Context).JSON</title>
<path fill="none" stroke="saddlebrown" d="M340.1,-1044.93C377.42,-1035.17 432.43,-1020.79 475.69,-1009.48"/>
<polygon fill="saddlebrown" stroke="saddlebrown" points="476.78,-1012.81 485.57,-1006.89 475.01,-1006.04 476.78,-1012.81"/>
</g>
<!-- git/omc_log_system/proxy.creatRouter$8&#45;&gt;(*sync.Map).Range -->
<g id="edge38" class="edge">
<title>git/omc_log_system/proxy.creatRouter$8&#45;&gt;(*sync.Map).Range</title>
<path fill="none" stroke="saddlebrown" d="M326.34,-949.18C334.71,-953.95 343.76,-959.44 351.74,-965 386.43,-989.17 387.33,-1006.3 424.74,-1026 440.21,-1034.15 457.92,-1040.47 474.82,-1045.29"/>
<polygon fill="saddlebrown" stroke="saddlebrown" points="474.09,-1048.72 484.65,-1047.96 475.92,-1041.96 474.09,-1048.72"/>
</g>
<!-- git/omc_log_system/proxy.creatRouter$8&#45;&gt;(*github.com/gin&#45;gonic/gin.Context).JSON -->
<g id="edge39" class="edge">
<title>git/omc_log_system/proxy.creatRouter$8&#45;&gt;(*github.com/gin&#45;gonic/gin.Context).JSON</title>
<path fill="none" stroke="saddlebrown" d="M341.78,-944.44C378.23,-953.07 430.67,-965.5 472.81,-975.48"/>
<polygon fill="saddlebrown" stroke="saddlebrown" points="472.2,-978.93 482.73,-977.83 473.81,-972.12 472.2,-978.93"/>
</g>
<!-- git/omc_log_system/proxy.creatRouter$9&#45;&gt;(*sync.Map).Range -->
<g id="edge41" class="edge">
<title>git/omc_log_system/proxy.creatRouter$9&#45;&gt;(*sync.Map).Range</title>
<path fill="none" stroke="saddlebrown" d="M329.34,-887.56C337.22,-892.11 345.26,-897.64 351.74,-904 396.82,-948.27 374.53,-987.64 424.74,-1026 437.95,-1036.09 454.09,-1043.09 470.13,-1047.96"/>
<polygon fill="saddlebrown" stroke="saddlebrown" points="469.51,-1051.42 480.08,-1050.72 471.38,-1044.67 469.51,-1051.42"/>
</g>
<!-- git/omc_log_system/proxy.creatRouter$9&#45;&gt;(*github.com/gin&#45;gonic/gin.Context).JSON -->
<g id="edge42" class="edge">
<title>git/omc_log_system/proxy.creatRouter$9&#45;&gt;(*github.com/gin&#45;gonic/gin.Context).JSON</title>
<path fill="none" stroke="saddlebrown" d="M325.89,-888.28C334.33,-893.1 343.53,-898.58 351.74,-904 385.64,-926.38 388.33,-940.99 424.74,-959 438.71,-965.91 454.36,-971.58 469.57,-976.14"/>
<polygon fill="saddlebrown" stroke="saddlebrown" points="468.91,-979.59 479.48,-978.98 470.84,-972.86 468.91,-979.59"/>
</g>
<!-- git/omc_log_system/proxy.creatRouter -->
<g id="node30" class="node">
<title>git/omc_log_system/proxy.creatRouter</title>
<ellipse fill="lightblue" stroke="black" stroke-width="0.5" cx="543.53" cy="-191" rx="46.5" ry="18"/>
<text text-anchor="middle" x="543.53" y="-187.3" font-family="Verdana" font-size="14.00">creatRouter</text>
</g>
<!-- (*github.com/gin&#45;gonic/gin.RouterGroup).Group -->
<g id="node31" class="node">
<title>(*github.com/gin&#45;gonic/gin.RouterGroup).Group</title>
<ellipse fill="moccasin" stroke="black" stroke-width="1.5" cx="843.51" cy="-124" rx="108.38" ry="21.43"/>
<text text-anchor="middle" x="843.51" y="-127.8" font-family="Verdana" font-size="14.00">gin</text>
<text text-anchor="middle" x="843.51" y="-112.8" font-family="Verdana" font-size="14.00">(*RouterGroup).Group</text>
</g>
<!-- git/omc_log_system/proxy.creatRouter&#45;&gt;(*github.com/gin&#45;gonic/gin.RouterGroup).Group -->
<g id="edge44" class="edge">
<title>git/omc_log_system/proxy.creatRouter&#45;&gt;(*github.com/gin&#45;gonic/gin.RouterGroup).Group</title>
<path fill="none" stroke="saddlebrown" d="M584.41,-182.03C629.61,-171.87 704.47,-155.04 761.96,-142.11"/>
<polygon fill="saddlebrown" stroke="saddlebrown" points="762.76,-145.52 771.75,-139.91 761.23,-138.69 762.76,-145.52"/>
</g>
<!-- (*github.com/gin&#45;gonic/gin.RouterGroup).POST -->
<g id="node32" class="node">
<title>(*github.com/gin&#45;gonic/gin.RouterGroup).POST</title>
<ellipse fill="moccasin" stroke="black" stroke-width="1.5" cx="843.51" cy="-191" rx="104.8" ry="21.43"/>
<text text-anchor="middle" x="843.51" y="-194.8" font-family="Verdana" font-size="14.00">gin</text>
<text text-anchor="middle" x="843.51" y="-179.8" font-family="Verdana" font-size="14.00">(*RouterGroup).POST</text>
</g>
<!-- git/omc_log_system/proxy.creatRouter&#45;&gt;(*github.com/gin&#45;gonic/gin.RouterGroup).POST -->
<g id="edge45" class="edge">
<title>git/omc_log_system/proxy.creatRouter&#45;&gt;(*github.com/gin&#45;gonic/gin.RouterGroup).POST</title>
<path fill="none" stroke="saddlebrown" d="M590.44,-191C627.25,-191 680.52,-191 728.62,-191"/>
<polygon fill="saddlebrown" stroke="saddlebrown" points="728.79,-194.5 738.79,-191 728.79,-187.5 728.79,-194.5"/>
</g>
<!-- (*github.com/gin&#45;gonic/gin.RouterGroup).GET -->
<g id="node33" class="node">
<title>(*github.com/gin&#45;gonic/gin.RouterGroup).GET</title>
<ellipse fill="moccasin" stroke="black" stroke-width="1.5" cx="843.51" cy="-258" rx="97.66" ry="21.43"/>
<text text-anchor="middle" x="843.51" y="-261.8" font-family="Verdana" font-size="14.00">gin</text>
<text text-anchor="middle" x="843.51" y="-246.8" font-family="Verdana" font-size="14.00">(*RouterGroup).GET</text>
</g>
<!-- git/omc_log_system/proxy.creatRouter&#45;&gt;(*github.com/gin&#45;gonic/gin.RouterGroup).GET -->
<g id="edge46" class="edge">
<title>git/omc_log_system/proxy.creatRouter&#45;&gt;(*github.com/gin&#45;gonic/gin.RouterGroup).GET</title>
<path fill="none" stroke="saddlebrown" d="M584.41,-199.97C630.43,-210.31 707.21,-227.58 765.09,-240.59"/>
<polygon fill="saddlebrown" stroke="saddlebrown" points="764.41,-244.03 774.93,-242.8 765.94,-237.2 764.41,-244.03"/>
</g>
<!-- git/omc_log_system/proxy.CreateProxy -->
<g id="node34" class="node">
<title>git/omc_log_system/proxy.CreateProxy</title>
<ellipse fill="lightblue" stroke="black" stroke-width="1.5" cx="296.74" cy="-155" rx="47.7" ry="18"/>
<text text-anchor="middle" x="296.74" y="-151.3" font-family="Verdana" font-size="14.00">CreateProxy</text>
</g>
<!-- git/omc_log_system/proxy.CreateProxy&#45;&gt;git/omc_log_system/proxy.creatRouter -->
<g id="edge48" class="edge">
<title>git/omc_log_system/proxy.CreateProxy&#45;&gt;git/omc_log_system/proxy.creatRouter</title>
<path fill="none" stroke="black" d="M341.5,-161.44C382.97,-167.53 445.31,-176.7 489.56,-183.21"/>
<polygon fill="black" stroke="black" points="489.15,-186.69 499.56,-184.68 490.17,-179.76 489.15,-186.69"/>
</g>
<!-- github.com/gin&#45;gonic/gin.Default -->
<g id="node35" class="node">
<title>github.com/gin&#45;gonic/gin.Default</title>
<ellipse fill="moccasin" stroke="black" stroke-width="1.5" cx="543.53" cy="-255" rx="39.7" ry="21.43"/>
<text text-anchor="middle" x="543.53" y="-258.8" font-family="Verdana" font-size="14.00">gin</text>
<text text-anchor="middle" x="543.53" y="-243.8" font-family="Verdana" font-size="14.00">Default</text>
</g>
<!-- git/omc_log_system/proxy.CreateProxy&#45;&gt;github.com/gin&#45;gonic/gin.Default -->
<g id="edge47" class="edge">
<title>git/omc_log_system/proxy.CreateProxy&#45;&gt;github.com/gin&#45;gonic/gin.Default</title>
<path fill="none" stroke="saddlebrown" d="M322.76,-170.25C347.84,-185.03 387.92,-207.32 424.74,-222 447.92,-231.24 474.64,-238.95 496.76,-244.59"/>
<polygon fill="saddlebrown" stroke="saddlebrown" points="496.03,-248.01 506.57,-247.03 497.72,-241.22 496.03,-248.01"/>
</g>
<!-- fmt.Sprintf -->
<g id="node36" class="node">
<title>fmt.Sprintf</title>
<ellipse fill="#adedad" stroke="black" stroke-width="1.5" cx="543.53" cy="-60" rx="37.45" ry="21.43"/>
<text text-anchor="middle" x="543.53" y="-63.8" font-family="Verdana" font-size="14.00">fmt</text>
<text text-anchor="middle" x="543.53" y="-48.8" font-family="Verdana" font-size="14.00">Sprintf</text>
</g>
<!-- git/omc_log_system/proxy.CreateProxy&#45;&gt;fmt.Sprintf -->
<g id="edge49" class="edge">
<title>git/omc_log_system/proxy.CreateProxy&#45;&gt;fmt.Sprintf</title>
<path fill="none" stroke="saddlebrown" d="M324.36,-140.24C349.63,-126.66 388.97,-106.61 424.74,-93 448.66,-83.89 476.17,-76.05 498.59,-70.29"/>
<polygon fill="saddlebrown" stroke="saddlebrown" points="499.65,-73.63 508.5,-67.8 497.95,-66.85 499.65,-73.63"/>
</g>
<!-- (*github.com/gin&#45;gonic/gin.Engine).Run -->
<g id="node37" class="node">
<title>(*github.com/gin&#45;gonic/gin.Engine).Run</title>
<ellipse fill="moccasin" stroke="black" stroke-width="1.5" cx="543.53" cy="-127" rx="69.09" ry="21.43"/>
<text text-anchor="middle" x="543.53" y="-130.8" font-family="Verdana" font-size="14.00">gin</text>
<text text-anchor="middle" x="543.53" y="-115.8" font-family="Verdana" font-size="14.00">(*Engine).Run</text>
</g>
<!-- git/omc_log_system/proxy.CreateProxy&#45;&gt;(*github.com/gin&#45;gonic/gin.Engine).Run -->
<g id="edge50" class="edge">
<title>git/omc_log_system/proxy.CreateProxy&#45;&gt;(*github.com/gin&#45;gonic/gin.Engine).Run</title>
<path fill="none" stroke="saddlebrown" d="M342.64,-149.86C377.7,-145.85 427.19,-140.19 468.15,-135.51"/>
<polygon fill="saddlebrown" stroke="saddlebrown" points="468.55,-138.98 478.09,-134.37 467.76,-132.03 468.55,-138.98"/>
</g>
<!-- git/omc_log_system.main -->
<g id="node38" class="node">
<title>git/omc_log_system.main</title>
<ellipse fill="moccasin" stroke="black" stroke-width="0.5" cx="92.37" cy="-155" rx="29.9" ry="21.43"/>
<text text-anchor="middle" x="92.37" y="-158.8" font-family="Verdana" font-size="14.00">main</text>
<text text-anchor="middle" x="92.37" y="-143.8" font-family="Verdana" font-size="14.00">main</text>
</g>
<!-- git/omc_log_system.main&#45;&gt;git/omc_log_system/proxy.CreateProxy -->
<g id="edge51" class="edge">
<title>git/omc_log_system.main&#45;&gt;git/omc_log_system/proxy.CreateProxy</title>
<path fill="none" stroke="saddlebrown" d="M122.36,-155C152.53,-155 200.57,-155 238.43,-155"/>
<polygon fill="saddlebrown" stroke="saddlebrown" points="238.82,-158.5 248.82,-155 238.82,-151.5 238.82,-158.5"/>
</g>
</g>
</svg>
